<?xml version="1.0" standalone="no"?>
<!DOCTYPE svg PUBLIC "-//W3C//DTD SVG 20010904//EN"
 "http://www.w3.org/TR/2001/REC-SVG-20010904/DTD/svg10.dtd">
<svg version="1.0" xmlns="http://www.w3.org/2000/svg"
 width="310.000000pt" height="310.000000pt" viewBox="0 0 310.000000 310.000000"
 preserveAspectRatio="xMidYMid meet">
<metadata>
Created by potrace 1.11, written by Peter Selinger 2001-2013
</metadata>
<g transform="translate(0.000000,310.000000) scale(0.100000,-0.100000)"
fill="#000000" stroke="none">
<path d="M1132 2970 c-18 -11 -37 -32 -42 -46 -6 -16 -10 -171 -10 -390 l1
-364 35 -35 c30 -31 41 -35 85 -35 57 0 93 19 115 61 21 41 21 727 0 768 -32
61 -119 80 -184 41z"/>
<path d="M1822 2970 c-18 -11 -37 -32 -42 -46 -6 -15 -10 -176 -10 -385 0
-317 2 -363 16 -385 52 -78 188 -70 223 14 8 20 11 132 9 396 l-3 368 -35 29
c-43 36 -108 40 -158 9z"/>
<path d="M710 2166 c-9 -11 -10 -114 -7 -418 4 -390 6 -429 28 -525 75 -338
359 -673 729 -861 25 -13 26 -15 25 -120 -1 -71 3 -116 12 -134 28 -57 105
-41 116 24 3 18 6 60 5 93 0 138 -6 125 81 173 304 168 534 435 635 736 59
177 65 236 66 642 0 328 -1 374 -15 388 -9 9 -22 16 -29 16 -6 0 -50 -25 -96
-56 -131 -87 -271 -143 -435 -174 -107 -21 -385 -20 -510 1 -189 32 -361 99
-494 191 -57 40 -91 47 -111 24z"/>
</g>
</svg>
